# xmcd
#
# Track frame offsets:
#	150
#	13255
#	23095
#	39185
#	50096
#	60098
#	71391
#	83137
#	91943
#	105220
#	117962
#	130284
#	141369
#	153142
#	165966
#	178883
#	190872
#	202808
#	216184
#	227481
#	238222
#	249298
#	261391
#	272794
#	286749
#
# Disc length: 3978 seconds
#
# Revision: 0
# Processed by: cddbd v1.5.1PL2 Copyright (c) Steve Scherf et al.
# Submitted via: dBpowerAMP V4.0
#
DISCID=4c0f8819
DTITLE=Frank Sinatra and My Blue Heaven - The Great American Songbook
DYEAR=2005
DGENRE=
TTITLE0=01 I get a kick out of you
TTITLE1=02 I've got the world on a string
TTITLE2=03 Hallo young lovers
TTITLE3=04 should I
TTITLE4=05 Taking a chance of love
TTITLE5=06 When you' smile
TTITLE6=07 Fiveminutes more
TTITLE7=08 It's only a papermoon
TTITLE8=09 Begin the beguine
TTITLE9=10 South of the border
TTITLE10=11 April in Paris
TTITLE11=12 My blue heaven
TTITLE12=13 All of me
TTITLE13=14 Young at heart
TTITLE14=15 Goodnight Irene
TTITLE15=16 A foggy day
TTITLE16=17 Chattanoogie shoe shine boy
TTITLE17=18 From here to Eternity
TTITLE18=19 I whistle a happy tune
TTITLE19=20 Jeepers Creepers
TTITLE20=21 Write myself a letter
TTITLE21=22 Lover
TTITLE22=23 My funny Valentine
TTITLE23=24 Three coins in the fountain
TTITLE24=25 You do something to me
EXTD=
EXTT0=
EXTT1=
EXTT2=
EXTT3=
EXTT4=
EXTT5=
EXTT6=
EXTT7=
EXTT8=
EXTT9=
EXTT10=
EXTT11=
EXTT12=
EXTT13=
EXTT14=
EXTT15=
EXTT16=
EXTT17=
EXTT18=
EXTT19=
EXTT20=
EXTT21=
EXTT22=
EXTT23=
EXTT24=
PLAYORDER=
